<svg width="25" height="25" viewBox="0 0 25 25" fill="none" xmlns="http://www.w3.org/2000/svg">
<g clip-path="url(#clip0_26_255)">
<path d="M0 0H25V25H0V0Z" fill="url(#paint0_linear_26_255)"/>
<path d="M17.7271 14.5114C17.3441 14.0315 17.0494 13.6896 17.0494 12.7668V9.7043C17.0494 8.41233 16.9611 7.20296 16.0048 6.31769C15.2383 5.61546 13.9771 5.35742 12.9816 5.35742C10.8762 5.35742 8.99498 6.20831 8.53605 8.49671C8.49721 8.75608 8.68828 8.8659 8.8423 8.90296L10.8378 9.08599C11.0289 9.08599 11.1441 8.90162 11.1829 8.7168C11.3352 7.94135 12.0271 7.28912 12.7927 7.28912C13.2142 7.28912 14.045 7.71144 14.045 8.59715V9.7043C12.8186 9.7043 11.4503 9.78689 10.3785 10.2293C9.11507 10.7472 8.03516 11.7391 8.03516 13.3266C8.03516 15.3565 9.60658 16.4659 11.2905 16.4659C12.7075 16.4659 13.4794 16.0989 14.5887 15.028C14.9338 15.5458 15.1472 15.9119 15.7977 16.4655C15.9517 16.5409 16.1427 16.5409 16.2566 16.4297C16.6392 16.0967 17.3066 15.3972 17.7267 15.0655C17.9182 14.9168 17.8807 14.6963 17.7267 14.5119L17.7271 14.5114ZM14.045 11.6364C14.045 12.3744 13.8994 14.2159 12.0244 14.2159C11.0606 14.2159 11.0401 13.0851 11.0401 13.0851C11.0401 11.636 12.5901 11.153 14.0445 11.153V11.636L14.045 11.6364Z" fill="white"/>
<path d="M18.39 17.9191C16.8052 18.9883 14.4311 19.6427 12.5079 19.6427C9.75522 19.6427 7.30478 18.6436 5.41951 17.0918C5.26951 16.9534 5.41951 16.8159 5.57129 16.8847C7.60701 17.9539 9.90701 18.5735 12.4695 18.5735C14.2043 18.5735 16.3914 18.2284 18.1633 17.5392C18.4267 17.4704 18.6534 17.7467 18.39 17.9191ZM18.9557 17.1945C18.7668 16.9534 17.636 17.0918 17.1454 17.1258C16.9936 17.1258 16.957 17.0217 17.107 16.9195C17.9744 16.3325 19.4445 16.5043 19.5958 16.7119C19.7463 16.9195 19.5579 18.2637 18.7289 18.8847C18.615 18.9883 18.465 18.9182 18.54 18.8159C18.7284 18.4008 19.1441 17.4365 18.9552 17.1941L18.9557 17.1945Z" fill="#FFB300"/>
</g>
<defs>
<linearGradient id="paint0_linear_26_255" x1="4.65089" y1="4.33572" x2="30.4228" y2="33.9362" gradientUnits="userSpaceOnUse">
<stop stop-color="#1A1E21"/>
<stop offset="1" stop-color="#06060A"/>
</linearGradient>
<clipPath id="clip0_26_255">
<rect width="25" height="25" rx="12.5" fill="white"/>
</clipPath>
</defs>
</svg>
