<svg width="25" height="25" viewBox="0 0 25 25" fill="none" xmlns="http://www.w3.org/2000/svg">
<path d="M12.5 0C5.5957 0 0 5.5957 0 12.5C0 19.4043 5.5957 25 12.5 25C19.4043 25 25 19.4043 25 12.5C25 5.5957 19.4043 0 12.5 0ZM12.9443 6.93848C13.4033 6.38184 14.1846 5.95703 14.8535 5.9082C14.9658 6.66992 14.6533 7.41211 14.2432 7.93945C13.8037 8.50586 13.0469 8.94043 12.3145 8.91602C12.1875 8.18848 12.5293 7.44141 12.9443 6.93848ZM17.0605 16.5967C16.5332 17.3975 15.791 18.3984 14.8682 18.4082C14.0479 18.418 13.8379 17.876 12.7295 17.8809C11.6211 17.8857 11.3867 18.418 10.5664 18.4082C9.64355 18.3984 8.94043 17.4951 8.41309 16.6943C6.93848 14.4482 6.78223 11.8164 7.69531 10.415C8.33984 9.41895 9.36035 8.83789 10.3223 8.83789C11.2988 8.83789 11.9092 9.375 12.7197 9.375C13.501 9.375 13.9795 8.83789 15.1074 8.83789C15.9619 8.83789 16.8652 9.30176 17.5098 10.1074C15.4004 11.2646 15.7422 14.2773 17.876 15.083C17.5781 15.7275 17.4365 16.0205 17.0605 16.5967Z" fill="black"/>
</svg>
