<svg width="12" height="8" viewBox="0 0 12 8" fill="none" xmlns="http://www.w3.org/2000/svg">
<path d="M11.6487 0.430429C11.5372 0.293972 11.4049 0.185723 11.2593 0.111868C11.1136 0.0380134 10.9575 0 10.7999 0C10.6422 0 10.4861 0.0380134 10.3405 0.111868C10.1949 0.185723 10.0625 0.293972 9.9511 0.430429L6.28237 4.91896C6.20736 5.01073 6.10564 5.06228 5.99958 5.06228C5.89352 5.06228 5.79179 5.01073 5.71678 4.91896L2.04886 0.430429C1.82385 0.154955 1.51864 0.000143141 1.20036 5.13485e-05C0.882079 -4.04439e-05 0.576805 0.154595 0.351694 0.429939C0.126583 0.705284 7.50488e-05 1.07878 3.33802e-08 1.46827C-7.4982e-05 1.85776 0.126289 2.23133 0.351294 2.5068L4.02002 6.99632C4.28002 7.31452 4.5887 7.56694 4.92842 7.73915C5.26814 7.91136 5.63226 8 5.99998 8C6.3677 8 6.73181 7.91136 7.07154 7.73915C7.41126 7.56694 7.71994 7.31452 7.97994 6.99632L11.6487 2.5068C11.8736 2.23143 12 1.85799 12 1.46862C12 1.07924 11.8736 0.705802 11.6487 0.430429Z" fill="#2A2F44"/>
</svg>
