<svg width="30" height="30" viewBox="0 0 30 30" fill="none" xmlns="http://www.w3.org/2000/svg">
<path d="M23.125 2.5H22.5V1.875C22.5 0.83875 21.66 0 20.625 0C19.59 0 18.75 0.83875 18.75 1.875V2.5H11.25V1.875C11.25 0.83875 10.41 0 9.375 0C8.34 0 7.5 0.83875 7.5 1.875V2.5H6.875C3.085 2.5 0 5.58375 0 9.375V23.125C0 26.9163 3.085 30 6.875 30H23.125C26.915 30 30 26.9163 30 23.125V9.375C30 5.58375 26.915 2.5 23.125 2.5ZM23.125 26.25H6.875C5.15125 26.25 3.75 24.8475 3.75 23.125V11.25H26.25V23.125C26.25 24.8475 24.8487 26.25 23.125 26.25ZM12.5 15.625V18.125C12.5 19.16 11.66 20 10.625 20H8.125C7.09 20 6.25 19.16 6.25 18.125V15.625C6.25 14.59 7.09 13.75 8.125 13.75H10.625C11.66 13.75 12.5 14.59 12.5 15.625Z" fill="#2A2F44"/>
</svg>
