<svg width="25" height="25" viewBox="0 0 25 25" fill="none" xmlns="http://www.w3.org/2000/svg">
<g clip-path="url(#clip0_26_251)">
<path d="M0 0H25V25H0V0Z" fill="#187BE0"/>
<path d="M17.0579 9.01184C13.928 6.25514 10.3007 5.45827 8.06501 5.36675C5.58108 5.27478 5.35742 5.88728 5.35742 6.13237C5.35742 6.43862 5.73019 6.74532 5.8543 6.80648C6.0034 6.89845 6.42573 6.99041 6.42573 6.83728C6.42573 6.56139 5.90385 6.40827 5.90385 6.34711C5.90385 6.25514 5.8543 6.04041 7.71724 6.19398C13.7789 6.65336 18.3244 10.6663 18.2998 13.9136C18.2753 15.7819 16.7597 17.5895 13.6297 17.5284C12.9838 17.4976 12.3378 17.4056 11.7414 17.2221C11.7664 16.3337 11.7664 15.2614 11.7664 14.1279V13.2087H11.8164C14.2012 13.1784 14.8717 13.423 14.9713 13.4542C15.0954 13.4846 15.0458 13.5458 15.0208 13.5766C14.9713 13.6069 14.5239 14.0051 14.5239 14.0971C14.5239 14.1587 14.4744 14.373 14.8967 14.3114C15.319 14.2502 15.915 13.6377 15.915 13.1784C15.8905 12.7185 14.5985 11.769 11.7418 11.8301C11.6672 10.115 11.4436 9.19621 11.2945 9.19621C11.0463 9.19621 10.8972 10.452 10.7976 11.8917C8.18957 12.198 7.49403 13.4846 7.41948 14.0667C7.34492 15.8127 8.90965 17.0685 10.6485 17.8038C10.6985 18.815 10.8226 19.6114 11.1454 19.6417C11.4686 19.6726 11.6177 19.0904 11.6922 18.202C12.4623 18.4476 13.2324 18.5699 13.8284 18.5699C16.7597 18.6618 19.5918 17.3444 19.6413 14.1891C19.6909 11.9221 18.6726 10.3904 17.0579 9.01184ZM7.9659 14.4342C8.01546 13.7601 9.00921 13.3618 10.723 13.2395C10.6985 13.8217 10.6739 14.373 10.6739 14.8324C10.6489 15.4453 10.6489 16.1493 10.6489 16.8234C9.03376 16.0886 7.9159 15.0163 7.9659 14.4342Z" fill="white"/>
</g>
<defs>
<clipPath id="clip0_26_251">
<rect width="25" height="25" rx="12.5" fill="white"/>
</clipPath>
</defs>
</svg>
