<svg width="10" height="10" viewBox="0 0 10 10" fill="none" xmlns="http://www.w3.org/2000/svg">
<path d="M9.51001 0.489755C9.19153 0.185444 8.768 0.015625 8.32751 0.015625C7.88702 0.015625 7.46348 0.185444 7.14501 0.489755L0.671256 6.96351C0.457886 7.1757 0.2887 7.4281 0.173483 7.70609C0.0582661 7.98409 -0.000696075 8.28217 6.20025e-06 8.58309V9.37476C6.20025e-06 9.54052 0.0658542 9.69949 0.183064 9.8167C0.300275 9.93391 0.459246 9.99976 0.625006 9.99976H1.41667C1.71774 10.0006 2.01597 9.94166 2.29412 9.82644C2.57226 9.71122 2.82479 9.54198 3.03709 9.32851L9.51001 2.85476C9.82317 2.5409 9.99905 2.11563 9.99905 1.67226C9.99905 1.22888 9.82317 0.803615 9.51001 0.489755ZM2.15251 8.44476C1.95683 8.63916 1.6925 8.74873 1.41667 8.74976H1.25001V8.58309C1.25086 8.30698 1.36044 8.04233 1.55501 7.84642L6.37501 3.02767L6.97209 3.62476L2.15251 8.44476ZM8.62501 1.97101L7.85584 2.74142L7.25834 2.14392L8.02917 1.37476C8.10957 1.29791 8.2165 1.25503 8.32771 1.25503C8.43893 1.25503 8.54586 1.29791 8.62626 1.37476C8.70484 1.45416 8.74882 1.56142 8.74858 1.67314C8.74835 1.78485 8.70392 1.89193 8.62501 1.97101Z" fill="white"/>
</svg>
