<svg width="17" height="17" viewBox="0 0 17 17" fill="none" xmlns="http://www.w3.org/2000/svg">
<path d="M15.9885 0.782463C15.4573 0.294043 14.7508 0.0214844 14.0161 0.0214844C13.2814 0.0214844 12.5749 0.294043 12.0437 0.782463L1.24562 11.1728C0.88972 11.5134 0.607522 11.9185 0.415343 12.3647C0.223163 12.8109 0.124816 13.2893 0.125987 13.7723V15.0429C0.125987 15.3089 0.23582 15.5641 0.431324 15.7522C0.626828 15.9403 0.891989 16.046 1.16847 16.046H2.48896C2.99113 16.0473 3.48858 15.9528 3.95251 15.7678C4.41645 15.5829 4.83767 15.3113 5.19178 14.9687L15.9885 4.57829C16.5108 4.07454 16.8042 3.39199 16.8042 2.68038C16.8042 1.96876 16.5108 1.28621 15.9885 0.782463ZM3.71631 13.5502C3.38993 13.8623 2.94903 14.0381 2.48896 14.0398H2.21096V13.7723C2.21239 13.3291 2.39516 12.9043 2.71969 12.5899L10.7594 4.85582L11.7553 5.81414L3.71631 13.5502ZM14.5123 3.15987L13.2294 4.39639L12.2327 3.4374L13.5185 2.20289C13.6526 2.07956 13.8309 2.01073 14.0164 2.01073C14.2019 2.01073 14.3803 2.07956 14.5144 2.20289C14.6455 2.33033 14.7188 2.50249 14.7184 2.68179C14.718 2.86109 14.6439 3.03296 14.5123 3.15987Z" fill="#2A2F44"/>
</svg>
