<svg width="20" height="20" viewBox="0 0 20 20" fill="none" xmlns="http://www.w3.org/2000/svg">
<path d="M10 0C4.486 0 0 4.31878 0 9.62718C0 14.9356 4.486 19.2542 10 19.2542C15.514 19.2542 20 14.9356 20 9.62718C20 4.31878 15.514 0 10 0ZM10 17.5039C5.48848 17.5039 1.81818 13.9704 1.81818 9.62718C1.81818 5.28395 5.48848 1.75039 10 1.75039C14.5115 1.75039 18.1818 5.28395 18.1818 9.62718C18.1818 13.9704 14.5115 17.5039 10 17.5039Z" fill="white"/>
<path d="M9.99899 4.08398C9.33075 4.08398 8.78711 4.6077 8.78711 5.25143C8.78711 5.89458 9.33075 6.41783 9.99899 6.41783C10.6672 6.41783 11.2109 5.89458 11.2109 5.25143C11.2109 4.6077 10.6672 4.08398 9.99899 4.08398Z" fill="white"/>
<path d="M10.0009 8.16797C9.49883 8.16797 9.0918 8.55982 9.0918 9.04316V14.2943C9.0918 14.7777 9.49883 15.1695 10.0009 15.1695C10.5029 15.1695 10.91 14.7777 10.91 14.2943V9.04316C10.91 8.55982 10.5029 8.16797 10.0009 8.16797Z" fill="white"/>
</svg>
