<svg width="25" height="25" viewBox="0 0 25 25" fill="none" xmlns="http://www.w3.org/2000/svg">
<path d="M12.5 0C5.6075 0 0 5.39848 0 12.034C0 18.6695 5.6075 24.0678 12.5 24.0678C19.3925 24.0678 25 18.6695 25 12.034C25 5.39848 19.3925 0 12.5 0ZM12.5 21.8798C6.86061 21.8798 2.27273 17.463 2.27273 12.034C2.27273 6.60493 6.86061 2.18798 12.5 2.18798C18.1394 2.18798 22.7273 6.60493 22.7273 12.034C22.7273 17.463 18.1393 21.8798 12.5 21.8798Z" fill="#2A2F44"/>
<path d="M12.4992 5.10547C11.6639 5.10547 10.9844 5.76011 10.9844 6.56478C10.9844 7.36872 11.6639 8.02278 12.4992 8.02278C13.3345 8.02278 14.0141 7.36872 14.0141 6.56478C14.0141 5.76011 13.3345 5.10547 12.4992 5.10547Z" fill="#2A2F44"/>
<path d="M12.5016 10.21C11.874 10.21 11.3652 10.6998 11.3652 11.304V17.8679C11.3652 18.4721 11.874 18.9619 12.5016 18.9619C13.1292 18.9619 13.638 18.4721 13.638 17.8679V11.304C13.638 10.6998 13.1292 10.21 12.5016 10.21Z" fill="#2A2F44"/>
</svg>
