<svg width="40" height="40" viewBox="0 0 40 40" fill="none" xmlns="http://www.w3.org/2000/svg">
<path d="M37.5 17.5H2.5C1.1193 17.5 0 18.6193 0 20C0 21.3807 1.1193 22.5 2.5 22.5H37.5C38.8807 22.5 40 21.3807 40 20C40 18.6193 38.8807 17.5 37.5 17.5Z" fill="#2A2F44"/>
<path d="M2.5 10.833H37.5C38.8807 10.833 40 9.71371 40 8.33301C40 6.9523 38.8807 5.83301 37.5 5.83301H2.5C1.1193 5.83301 0 6.9523 0 8.33301C0 9.71371 1.1193 10.833 2.5 10.833Z" fill="#2A2F44"/>
<path d="M37.5 29.166H2.5C1.1193 29.166 0 30.2853 0 31.666C0 33.0467 1.1193 34.166 2.5 34.166H37.5C38.8807 34.166 40 33.0467 40 31.666C40 30.2853 38.8807 29.166 37.5 29.166Z" fill="#2A2F44"/>
</svg>
