<svg width="16" height="16" viewBox="0 0 16 16" fill="none" xmlns="http://www.w3.org/2000/svg">
<path d="M15.4674 8.76044L13.8457 10.5514C13.1049 11.3704 11.8348 10.2575 12.5946 9.41842L13.1005 8.85962H8.71897V13.1004L9.27776 12.5945C10.1036 11.8454 11.2388 13.0959 10.4107 13.8456L8.6206 15.4665C8.41532 15.649 8.15024 15.7499 7.87556 15.75C7.60089 15.7502 7.3357 15.6496 7.13021 15.4673L5.33925 13.8456C4.51006 13.0949 5.64697 11.846 6.47223 12.5945L7.03102 13.1004V8.85962H2.64948L3.15542 9.41842C3.91805 10.2607 2.63756 11.362 1.90432 10.5514L0.283407 8.76126C0.100982 8.55595 0.000152032 8.29088 1.71787e-07 8.01623C-0.000151689 7.74158 0.100385 7.4764 0.282583 7.27088L1.90432 5.47996C2.6525 4.65286 3.90491 5.78516 3.15542 6.61292L2.64948 7.17171H7.03102V2.64959L6.47223 3.1555C5.64652 3.9044 4.51098 2.6543 5.33925 1.9044L7.12938 0.283525C7.33467 0.101029 7.59975 0.000152044 7.87443 1.71733e-07C8.1491 -0.0001517 8.41429 0.100432 8.61978 0.282701L10.4107 1.90439C11.2537 2.66763 10.0864 3.88847 9.27776 3.15549L8.71897 2.64957V7.17171H13.1005L12.5946 6.61292C11.846 5.7862 13.0967 4.6513 13.8457 5.47995L15.4666 7.27006C15.649 7.47537 15.7498 7.74044 15.75 8.01509C15.7501 8.28974 15.6496 8.55492 15.4674 8.76044Z" fill="white"/>
</svg>
