<svg width="22" height="22" viewBox="0 0 22 22" fill="none" xmlns="http://www.w3.org/2000/svg">
<path d="M1.46279 11.0795C2.1427 11.0795 2.69451 11.5708 2.79305 12.2173C3.36725 15.9574 6.7247 18.8373 10.7683 18.8373C15.6737 18.8373 19.5713 14.599 18.7114 9.72708C18.3056 7.42992 16.7872 5.39738 14.6597 4.28543C11.519 2.6451 7.95911 3.20538 5.54046 5.1862L6.55271 6.16023C7.11706 6.70327 6.71754 7.63162 5.91938 7.63162H1.81125C1.31677 7.63162 0.915454 7.24545 0.915454 6.76964V2.81663C0.915454 2.04861 1.88023 1.66417 2.44458 2.20721L3.63778 3.35536C6.82772 0.636695 11.5943 -0.184767 15.8188 1.94948C18.7929 3.4519 20.8926 6.28263 21.3934 9.47883C22.3985 15.8893 17.2432 21.4232 10.7692 21.4232C5.37563 21.4232 0.896643 17.5814 0.134319 12.5914C0.0133861 11.7984 0.629695 11.0795 1.46279 11.0795Z" fill="#2A2F44"/>
</svg>
