<svg width="35" height="37" viewBox="0 0 35 37" fill="none" xmlns="http://www.w3.org/2000/svg">
<path d="M34.4678 33.0201L25.8397 24.0464C28.0582 21.4092 29.2737 18.0911 29.2737 14.6368C29.2737 6.56621 22.7075 0 14.6368 0C6.56621 0 0 6.56621 0 14.6368C0 22.7075 6.56621 29.2737 14.6368 29.2737C17.6667 29.2737 20.5539 28.3598 23.0225 26.625L31.7161 35.6668C32.0795 36.0442 32.5682 36.2523 33.092 36.2523C33.5877 36.2523 34.058 36.0633 34.415 35.7196C35.1736 34.9897 35.1978 33.7793 34.4678 33.0201ZM14.6368 3.81831C20.6023 3.81831 25.4554 8.67137 25.4554 14.6368C25.4554 20.6023 20.6023 25.4554 14.6368 25.4554C8.67137 25.4554 3.81831 20.6023 3.81831 14.6368C3.81831 8.67137 8.67137 3.81831 14.6368 3.81831Z" fill="#2A2F44"/>
</svg>
