<svg width="25" height="25" viewBox="0 0 25 25" fill="none" xmlns="http://www.w3.org/2000/svg">
<path d="M15.625 3.125V21.875C15.625 23.6042 14.2292 25 12.5 25C10.7708 25 9.375 23.6042 9.375 21.875V3.125C9.375 1.39583 10.7708 0 12.5 0C14.2292 0 15.625 1.39583 15.625 3.125ZM21.875 6.25C20.1458 6.25 18.75 7.64583 18.75 9.375V21.875C18.75 23.6042 20.1458 25 21.875 25C23.6042 25 25 23.6042 25 21.875V9.375C25 7.64583 23.6042 6.25 21.875 6.25ZM3.125 12.5C1.39583 12.5 0 13.8958 0 15.625V21.875C0 23.6042 1.39583 25 3.125 25C4.85417 25 6.25 23.6042 6.25 21.875V15.625C6.25 13.8958 4.85417 12.5 3.125 12.5Z" fill="#2A2F44"/>
</svg>
