<svg width="65" height="64" viewBox="0 0 65 64" fill="none" xmlns="http://www.w3.org/2000/svg">
<path d="M0.914062 31.7847C0.914062 14.4578 15.1373 0.412109 32.683 0.412109C50.2288 0.412109 64.452 14.4578 64.452 31.7847C64.452 49.1115 50.2288 63.1572 32.683 63.1572C15.1373 63.1572 0.914062 49.1115 0.914062 31.7847Z" fill="#FF2000"/>
<path d="M32.6863 53.5458L38.8796 19.1493C44.7828 19.1493 46.6449 19.7886 46.9137 22.3978C46.9137 22.3978 50.8738 20.9397 52.8711 17.9783C45.077 14.4117 37.2457 14.2509 37.2457 14.2509L32.676 19.7472L32.6863 19.7465L28.1167 14.25C28.1167 14.25 20.2852 14.411 12.4922 17.9776C14.4878 20.939 18.4494 22.3971 18.4494 22.3971C18.7198 19.7877 20.5796 19.1485 26.4432 19.1443L32.6863 53.5458Z" fill="white"/>
<path d="M32.6816 12.6656C38.982 12.618 46.1936 13.6281 53.576 16.8055C54.5627 15.0517 54.8163 14.2766 54.8163 14.2766C46.7463 11.1237 39.1887 10.0446 32.6807 10.0176C26.1731 10.0446 18.6159 11.1238 10.5469 14.2766C10.5469 14.2766 10.9068 15.2314 11.7864 16.8055C19.1674 13.6281 26.3801 12.618 32.6807 12.6656H32.6816Z" fill="white"/>
</svg>
