<svg width="25" height="25" viewBox="0 0 25 25" fill="none" xmlns="http://www.w3.org/2000/svg">
<path d="M0 12.5C0 5.59635 5.59635 0 12.5 0C19.4037 0 25 5.59635 25 12.5C25 19.4037 19.4037 25 12.5 25C5.59635 25 0 19.4037 0 12.5Z" fill="#FF2000"/>
<path d="M12.5024 21.1706L14.9392 7.46576C17.2619 7.46576 17.9945 7.72046 18.1003 8.76007C18.1003 8.76007 19.6585 8.17909 20.4444 6.99915C17.3777 5.5781 14.2963 5.51402 14.2963 5.51402L12.4983 7.70397L12.5024 7.7037L10.7043 5.51367C10.7043 5.51367 7.62293 5.57783 4.55664 6.99887C5.34183 8.17882 6.9006 8.75979 6.9006 8.75979C7.007 7.72011 7.73874 7.46541 10.0459 7.46376L12.5024 21.1706Z" fill="white"/>
<path d="M12.5003 4.88222C14.9793 4.86326 17.8168 5.26571 20.7215 6.53172C21.1097 5.83295 21.2095 5.52412 21.2095 5.52412C18.0342 4.26786 15.0606 3.83793 12.4999 3.82715C9.9394 3.83793 6.96591 4.26793 3.79102 5.52412C3.79102 5.52412 3.93265 5.90452 4.27871 6.53172C7.1829 5.26571 10.0209 4.86326 12.4999 4.88222H12.5003Z" fill="white"/>
</svg>
